<svg id="Layer_1" data-name="Layer 1" xmlns="http://www.w3.org/2000/svg" viewBox="0 0 234.41 234.41"><defs><style>.cls-1{fill:#004c4c;stroke:#004c4c;}.cls-1,.cls-2{stroke-miterlimit:10;stroke-width:3px;}.cls-2,.cls-3{fill:#66b2b2;}.cls-2{stroke:#66b2b2;}</style></defs><path class="cls-1" d="M102.11,209.39q-2.28-4.11-4.32-8.24c-20.64,40.77-22.05,81.09.27,103.41l5.4-5.4C84.27,280,85.09,245.41,102.11,209.39Z" transform="translate(-80.11 -88.09)"/><path class="cls-2" d="M198.87,104.37a165.14,165.14,0,0,0-19.79-8.2l-2.43,7.25c4.56,1.53,9.16,3.35,13.77,5.42C193.23,107.26,196.05,105.78,198.87,104.37Z" transform="translate(-80.11 -88.09)"/><path class="cls-2" d="M205,116.23c1.69,1,3.38,1.93,5.06,3l4-6.54-.57-.33Q209.24,114.14,205,116.23Z" transform="translate(-80.11 -88.09)"/><path class="cls-2" d="M280.87,188.44A221,221,0,0,0,251,151.57a217.58,217.58,0,0,0-41-32.38l4-6.54a233,233,0,0,1,73.27,71.67Z" transform="translate(-80.11 -88.09)"/><path class="cls-2" d="M179.31,297.06c2.84-1.13,5.68-2.38,8.51-3.71A217.79,217.79,0,0,1,143.6,259C118.28,233.7,100.25,204.2,92.84,176c-7.23-27.53-3.45-50.44,10.62-64.51,15.52-15.53,42.2-18.45,73.19-8l2.43-7.25c-33.83-11.39-63.37-7.79-81,9.86C82,122.11,77.51,147.62,85.45,177.88c7.75,29.54,26.48,60.28,52.74,86.54A225.19,225.19,0,0,0,179.31,297.06Z" transform="translate(-80.11 -88.09)"/><path class="cls-2" d="M308.1,228.8,300.77,231c8.48,28.77,5,53.63-9.59,68.2-19,19-53.12,18.38-88.79,1.8q-4.2,2.27-8.41,4.27c20.38,10.19,40.61,15.58,58.52,15.58,17.67,0,33.07-5.24,44.08-16.25C313.19,288,317.39,260.34,308.1,228.8Z" transform="translate(-80.11 -88.09)"/><path class="cls-1" d="M301.8,176a146.27,146.27,0,0,1-8.58,23.69c1.54,2.83,3,5.67,4.39,8.52a158.55,158.55,0,0,0,11.58-30.28c7.94-30.26,3.46-55.78-12.61-71.85l-5.4,5.4C305.25,125.51,309,148.42,301.8,176Z" transform="translate(-80.11 -88.09)"/><path class="cls-1" d="M285.69,214.24A216.61,216.61,0,0,1,251,259c-25.32,25.32-54.82,43.35-83.07,50.76-27.53,7.23-50.44,3.45-64.51-10.62l-5.4,5.4C108.93,315.44,124.14,321,142.22,321a109.85,109.85,0,0,0,27.69-3.83c29.54-7.75,60.27-26.49,86.54-52.75a227.55,227.55,0,0,0,33-41.58C288.31,220,287.06,217.11,285.69,214.24Z" transform="translate(-80.11 -88.09)"/><path class="cls-2" d="M301,231.48A166.71,166.71,0,0,0,281.08,189l6.44-4.11a174.52,174.52,0,0,1,20.79,44.47Z" transform="translate(-80.11 -88.09)"/><path class="cls-1" d="M109.69,195.08a218.29,218.29,0,0,1,33.91-43.51c25.32-25.32,54.82-43.35,83.07-50.76,27.53-7.22,50.44-3.45,64.51,10.62l5.4-5.4C280.51,90,255,85.48,224.73,93.42c-29.54,7.75-60.27,26.48-86.54,52.75a225.53,225.53,0,0,0-32.3,40.6Q107.66,190.93,109.69,195.08Z" transform="translate(-80.11 -88.09)"/><path class="cls-3" d="M223.46,208.16A29.49,29.49,0,1,1,194,178.68,29.48,29.48,0,0,1,223.46,208.16Z" transform="translate(-80.11 -88.09)"/></svg>